<?xml version="1.0" encoding="utf-8"?>
<!-- Generator: Adobe Illustrator 24.0.2, SVG Export Plug-In . SVG Version: 6.00 Build 0)  -->
<svg version="1.1" id="Layer_1" xmlns="http://www.w3.org/2000/svg" xmlns:xlink="http://www.w3.org/1999/xlink" x="0px" y="0px"
	 viewBox="0 0 857.1 633.4" style="enable-background:new 0 0 857.1 633.4;" xml:space="preserve">
<style type="text/css">
	.st0{fill:#E9F9FF;}
	.st1{fill:#CCF3FF;}
	.st2{fill:url(#SVGID_1_);}
	.st3{fill:#FFECC3;}
	.st4{fill:url(#SVGID_2_);}
	.st5{fill:url(#SVGID_3_);}
	.st6{fill:url(#SVGID_4_);}
	.st7{fill:url(#SVGID_5_);}
	.st8{fill:url(#SVGID_6_);}
	.st9{fill:url(#SVGID_7_);}
	.st10{fill:url(#SVGID_8_);}
	.st11{fill:url(#SVGID_9_);}
	.st12{fill:url(#SVGID_10_);}
	.st13{fill:#5252CE;}
	.st14{fill:#12005B;}
	.st15{fill:none;stroke:#12005B;stroke-width:2.8;stroke-linecap:round;stroke-miterlimit:10;}
	.st16{fill:#FFFFFF;}
	.st17{fill:#ECECEC;}
	.st18{fill:#4A227F;}
	.st19{opacity:0.45;fill:#4A227F;enable-background:new    ;}
	.st20{fill:#3D2075;}
	.st21{fill:#502B89;}
	.st22{fill:none;stroke:#F52858;stroke-width:1.74;stroke-linecap:round;stroke-miterlimit:10;}
	.st23{fill:#F52858;}
	.st24{opacity:0.1;fill:url(#SVGID_11_);enable-background:new    ;}
	.st25{fill:url(#SVGID_12_);}
	.st26{opacity:0.5;fill:url(#SVGID_13_);enable-background:new    ;}
	.st27{fill:url(#SVGID_14_);}
	.st28{fill:#2B2B2B;}
	.st29{fill:#49320D;}
	.st30{opacity:0.5;fill:url(#SVGID_15_);enable-background:new    ;}
	.st31{fill:#347D99;}
	.st32{fill:#3B80A3;}
	.st33{fill:url(#SVGID_16_);}
	.st34{fill:url(#SVGID_17_);}
	.st35{fill:url(#SVGID_18_);}
	.st36{fill:url(#SVGID_19_);}
	.st37{opacity:0.5;fill:url(#SVGID_20_);enable-background:new    ;}
	.st38{fill:url(#SVGID_21_);}
	.st39{opacity:0.5;fill:url(#SVGID_22_);enable-background:new    ;}
	.st40{fill:url(#SVGID_23_);}
	.st41{fill:#F7941D;}
	.st42{fill:url(#SVGID_24_);}
	.st43{fill:url(#SVGID_25_);}
	.st44{fill:url(#SVGID_26_);}
	.st45{fill:url(#SVGID_27_);}
	.st46{fill:url(#SVGID_28_);}
	.st47{fill:#FFB882;}
	.st48{fill:#BC3F39;}
	.st49{fill:#1B1E23;}
	.st50{fill:#D34F42;}
	.st51{fill:#22252D;}
	.st52{fill:#602540;}
	.st53{fill:none;stroke:#EFA470;stroke-width:0.75;stroke-miterlimit:10;}
	.st54{fill:none;stroke:#7C1F1A;stroke-width:0.75;stroke-linejoin:round;}
	.st55{fill:#EFA573;}
	.st56{fill:#0B0B3A;}
	.st57{fill:#7C3552;}
	.st58{fill:none;stroke:#F9D9D7;stroke-width:0.75;stroke-miterlimit:10;}
	.st59{fill:#934769;}
	.st60{fill:#333333;}
	.st61{fill:#2D2D2D;}
	.st62{fill:#894065;}
	.st63{fill:#1E1E1E;}
	.st64{fill:#FF9566;}
	.st65{fill:#EADDBE;}
	.st66{fill:#D8C091;}
	.st67{fill:#353535;}
	.st68{fill:#F7AD7C;}
	.st69{fill:#CEB995;}
	.st70{fill:#FFB94A;}
	.st71{fill:#EF7335;}
	.st72{fill:#DDCBA6;}
	.st73{fill:#5E85BC;}
	.st74{fill:#4B6F9B;}
	.st75{fill:#D8C5A0;}
	.st76{fill:#DBC8A2;}
	.st77{fill:#D3BB92;}
	.st78{fill:#7A4939;}
	.st79{fill:#F4E6C9;}
	.st80{fill:none;stroke:#418BE5;stroke-linejoin:round;}
	.st81{fill:#A5A5A5;}
	.st82{fill:#BDBDBD;}
	.st83{fill:none;stroke:#868A8E;stroke-width:0.75;stroke-miterlimit:10;}
</style>
<title>online school</title>
<g>
	<g id="Layer_4">
		<path class="st0" d="M697.4,396.4c-1.4-1.7-2.9-3.3-4.5-4.8c-23.8-22.6-50-7.4-80-10.8c-19.4-2.2-35-17-33.8-32.2
			c1.4-17,20.1-29.5,34.5-42.4c23.3-20.9,38.2-49.3,30.3-76.2c-4.6-15.8-19.4-31.2-38.9-38.9c-26-10.3-43.2-1-69,1.4
			c-28.2,2.6-54.7-21.2-47-42.3c3-8.2,9.9-15.2,15.2-22.6c18.9-26.3,18.1-60.4-2-86.2C470.8,1.1,400-12,351.7,18.8
			c-47.5,30.3-47.3,84-63.6,126c-8.3,21.4-27.3,38.8-58.3,37.1c-15.5-0.9-30.8-4.6-46.3-3.2c-43.4,3.9-62.9,42.1-64,71.6
			c-1.6,40.4,30.7,71.9,67.2,98c13.2,9.5,25.9,20.5,29.3,34.2c6,24.3-25.7,32.6-47.4,41.8c-9.6,4.1-18.7,9.7-23,17.5
			c-11.2,20.9,16.1,43.4,33,57.3c10.5,8.7,46.9,41.8,63.8,41.6h312.1c45-6.4,90.7-21.5,122.3-47.1
			C706.8,469.3,722.7,426.3,697.4,396.4z"/>
		<path class="st0" d="M186.1,363.3c9.8,7.1,18.9,18.5,13.3,29c-3,5.8-9.9,9.8-16.8,12.9c-4.4,2.1-9.1,3.7-13.9,4.8
			c-15.1,3-35.9-3.3-46.9-11.3c-20.6-15,1.6-31.1,19.7-38.3C157.3,353.9,172.3,353.4,186.1,363.3z"/>
		<path class="st0" d="M516.1,133.8c-3.6,4.1-6,8.7-6.7,13.4c-1.2,8.5,4.7,17,13,22.6c28.6,19.4,70.9,5.2,88.7-17.3
			c3.7-4.7,5.9-10.3,4.4-15.7c-5-18.3-36.7-27.8-58-24.5C542.8,114.6,525.4,122.9,516.1,133.8z"/>
		<path class="st0" d="M269.3,139.9c-5.5,9-12.7,17-24.5,21.6c-10.9,4.3-25,5.6-36.4,1.6c-14.5-5-25.4-22.4-18-34
			c5.2-8.1,17.3-12.2,26.1-17.5c10.2-6.3,17.2-14.5,25.5-22.2c4.5-4.2,9.4-5.1,16.1-2.7C285.3,96.6,279.7,122.8,269.3,139.9z"/>
		<ellipse class="st1" cx="432.9" cy="573.8" rx="424.2" ry="59.5"/>
		
			<linearGradient id="SVGID_1_" gradientUnits="userSpaceOnUse" x1="151.406" y1="-29.4787" x2="392.556" y2="-29.4787" gradientTransform="matrix(1 -0.1 -0.1 -1 -140.12 365.07)">
			<stop  offset="6.000000e-02" style="stop-color:#E47CB5"/>
			<stop  offset="1" style="stop-color:#F49CD8"/>
		</linearGradient>
		<path class="st2" d="M11.6,281.9c9.1,8.5,21.8,13.3,25,25.4c4.6,17.7-11,34.5-10.8,52.6c0.3,28.8,25.9,47.1,49.4,58.3
			c5.3,2.5,10.8,4.9,14.5,9.4c6.1,7.5,5.5,18.2,5.3,27.8c-0.5,22.6,4.5,47.1,21.6,61.9c15.1,13,37.4,15.7,56.6,10.4
			s36-17.4,50.5-31.2c22-20.9,40.9-50.3,34.6-80c-4.5-21.3-22.6-38.9-44-42.9c-7.9-1.5-16.2-1.2-23.5-4.4
			c-30.3-13.1-19.1-68.1-49.1-82c-14.8-6.9-33.2,0.4-48.3-6c-11.3-4.7-18.3-16-23.4-27.1c-7.1-15.2-24.2-40.9-43.6-41.2
			C-5.4,212.6-6,265.5,11.6,281.9z"/>
		<path class="st3" d="M122.8,479.4c0.4-0.7,1.2-1,2-0.6c22.8,11.9,48.7-4.7,57.3-11.1c-4.7-5.9-9.4-11.9-14.1-17.9
			c-8.7-11.3-17.2-22.7-25.5-34.2c-9.9-13.6-19.6-27.4-29.2-41.3c-4.4,2.7-32.9,19.1-57.9-0.6c-0.7-0.4-0.8-1.3-0.4-2
			c0.4-0.7,1.3-0.8,2-0.4c0.1,0,0.1,0.1,0.2,0.1c23.3,18.4,50.2,3.2,54.5,0.5c-6-8.7-11.9-17.5-17.8-26.2
			c-15.8-23.6-31.3-47.4-46.4-71.4c-0.2-0.3-0.1-0.8,0.2-1s0.8-0.1,1,0.2l0,0c10.6,16.2,21.5,32.3,32.5,48.2l0.1-0.1
			c0.1-0.1,13.3-8.1,16.9-27c0.1-0.8,0.9-1.3,1.7-1.2c0.8,0.1,1.3,0.9,1.2,1.7c-2.8,14.7-10.9,23.2-15.3,26.8
			c-0.9,0.8-1.9,1.5-2.9,2.1c4.5,6.6,9.1,13.1,13.7,19.7c16.3,23.2,33,46.1,50,68.7c4.4,5.8,8.9,11.6,13.4,17.4
			c6.7-4.2,25-17.3,27.9-38.6c0.1-0.8,0.8-1.3,1.6-1.2s1.3,0.8,1.2,1.6c-2.2,16.3-12.6,27.8-20.9,34.7c-2.5,2.1-5.2,4-8,5.8
			c3.6,4.6,7.3,9.2,10.9,13.8c8.9,11,17.9,21.9,27.2,32.5s18.9,21,28.9,30.8l3.8,3.7l3.9,3.6l3.9,3.5l4,3.4
			c5.2,4.5,10.8,8.5,16.6,12.2l0.2,0.1l0,0c2,1.3,2.5,4,1.2,6c-1.3,2-4,2.5-6,1.2l0,0c-6.1-4-12-8.5-17.4-13.3l-4.1-3.6l-3.9-3.7
			l-3.9-3.7l-3.7-3.9c-10-10.2-19.4-20.9-28.6-31.9c-3.6-4.3-7.2-8.7-10.7-13.2c-5.4,4-11.3,7.5-17.4,10.3
			c-16,7.1-30.9,7.5-43.1,1.1C122.7,481,122.4,480.1,122.8,479.4C122.8,479.4,122.8,479.4,122.8,479.4z"/>
		
			<linearGradient id="SVGID_2_" gradientUnits="userSpaceOnUse" x1="930.9894" y1="8.5556" x2="1056.0533" y2="8.5556" gradientTransform="matrix(0.9991 4.327065e-02 4.327065e-02 -0.9991 -217.1817 355.7762)">
			<stop  offset="0" style="stop-color:#ED7B1D"/>
			<stop  offset="1" style="stop-color:#F7B01D"/>
		</linearGradient>
		<path class="st4" d="M712,418.6c0,0,19.8-32.2,61.5-51s68.3,2.3,64.6,25c-3.6,22.7-27.4,26.6-59.7,24.6
			C746.1,415.3,712,418.6,712,418.6z"/>
		
			<linearGradient id="SVGID_3_" gradientUnits="userSpaceOnUse" x1="804.4959" y1="12.0614" x2="902.3915" y2="12.0614" gradientTransform="matrix(0.9991 4.327065e-02 4.327065e-02 -0.9991 -217.1817 355.7762)">
			<stop  offset="0" style="stop-color:#ED7B1D"/>
			<stop  offset="1" style="stop-color:#F7B01D"/>
		</linearGradient>
		<path class="st5" d="M673.1,442.7c0,0,22.5-41.8,3.7-87.5c-18.8-45.8-90.6-48.7-88.5-0.3C590.9,379.1,648.5,397.8,673.1,442.7z"/>
		
			<linearGradient id="SVGID_4_" gradientUnits="userSpaceOnUse" x1="890.5028" y1="-77.9968" x2="1022.8099" y2="-77.9968" gradientTransform="matrix(0.9991 4.327065e-02 4.327065e-02 -0.9991 -217.1817 355.7762)">
			<stop  offset="0" style="stop-color:#ED7B1D"/>
			<stop  offset="1" style="stop-color:#F7B01D"/>
		</linearGradient>
		<path class="st6" d="M668.4,487.5c0,0,32.2-37.1,89.1-44.4s54.6,58.5,15.5,65.7C734,515.9,714.8,490,668.4,487.5z"/>
		
			<linearGradient id="SVGID_5_" gradientUnits="userSpaceOnUse" x1="860.5401" y1="77.3429" x2="938.3361" y2="77.3429" gradientTransform="matrix(0.9991 4.327065e-02 4.327065e-02 -0.9991 -217.1817 355.7762)">
			<stop  offset="0" style="stop-color:#ED7B1D"/>
			<stop  offset="1" style="stop-color:#F7B01D"/>
		</linearGradient>
		<path class="st7" d="M708.3,376.1c0,0,26.4-48.5,9.6-83.8c-16.8-35.3-54.5-43.1-68.6-18.9C635.3,297.5,701.7,345.5,708.3,376.1z"
			/>
		
			<linearGradient id="SVGID_6_" gradientUnits="userSpaceOnUse" x1="956.4279" y1="84.3781" x2="1050.2057" y2="84.3781" gradientTransform="matrix(0.9991 4.327065e-02 4.327065e-02 -0.9991 -217.1817 355.7762)">
			<stop  offset="0" style="stop-color:#ED7B1D"/>
			<stop  offset="1" style="stop-color:#F7B01D"/>
		</linearGradient>
		<path class="st8" d="M740.9,337.4c6.9-24.1,33.6-42.9,56.5-48.8c20.6-5.3,40.5,10.3,38,32c-3.8,33-47.5,21.1-68.7,19.3
			C759.3,339.3,747.4,340.5,740.9,337.4z"/>
		
			<linearGradient id="SVGID_7_" gradientUnits="userSpaceOnUse" x1="928.7564" y1="134.6045" x2="986.8784" y2="134.6045" gradientTransform="matrix(0.9991 4.327065e-02 4.327065e-02 -0.9991 -217.1817 355.7762)">
			<stop  offset="0" style="stop-color:#ED7B1D"/>
			<stop  offset="1" style="stop-color:#F7B01D"/>
		</linearGradient>
		<path class="st9" d="M740.8,311.9c0,0,30.9-25.4,34.2-58.1s-30.3-52.1-50.6-32.6C704,240.6,735.1,286,740.8,311.9z"/>
		
			<linearGradient id="SVGID_8_" gradientUnits="userSpaceOnUse" x1="756.5509" y1="-46.951" x2="863.2043" y2="-46.951" gradientTransform="matrix(0.9991 4.327065e-02 4.327065e-02 -0.9991 -217.1817 355.7762)">
			<stop  offset="0" style="stop-color:#ED7B1D"/>
			<stop  offset="1" style="stop-color:#F7B01D"/>
		</linearGradient>
		<path class="st10" d="M637.8,495c0,0,20-59.7-27.5-97.9s-80.9,4.2-71.3,31.8S593.9,462.4,637.8,495z"/>
		<path class="st3" d="M599.1,430.1c0.4-0.3,1-0.3,1.3,0c20.4,22.1,30.6,42.8,35.5,56.3c2.6,6.8,4.4,13.9,5.5,21.1
			c7-8.7,13.6-17.7,19.7-27c3.2-4.9,6.2-9.8,9.2-14.8c2.6-14.6,8-65.8-32.8-100.7c-0.4-0.3-0.4-0.9-0.1-1.3c0.3-0.4,0.9-0.4,1.3-0.1
			c38,32.4,36.7,78.7,34.2,97.8c2.1-3.7,4.2-7.3,6.3-11.1c5.7-10.2,11-20.7,16.1-31.2c3.7-7.7,7.3-15.5,10.9-23.3
			c1.6-10.5,5.1-48.1-16.9-84.4c-0.3-0.4-0.1-1,0.3-1.3c0.4-0.3,1-0.1,1.3,0.3c0,0,0,0,0,0c19.2,31.7,19.2,64.5,17.8,79.7
			c5.2-11.7,10.2-23.6,14.9-35.5c8.4-21.1,16.3-42.5,23.3-64.1c3.4-14.1,5.7-33.8-1.3-52.4c-0.2-0.5,0.1-1,0.5-1.2
			c0.5-0.2,1,0.1,1.2,0.5c12.9,34.4-5.1,72.7-5.3,73.1c-0.1,0.2-0.2,0.3-0.3,0.4c-4.2,12.5-8.6,24.9-13.2,37.3
			c8.6-9.3,31.1-30.2,59.1-29.2c0.5,0,1,0.4,1,0.9c0,0.5-0.4,1-0.9,1c-0.1,0-0.1,0-0.2,0c-32.3-1.2-57.2,27.8-60.8,32.2
			c-0.3,0.8-0.6,1.6-0.9,2.4c-8.4,22-17.4,43.7-27.4,65c-1.9,4-3.8,8-5.7,11.9c14.5-13,53.7-43.2,102.5-39.6c0.5,0,0.9,0.5,0.9,1
			c0,0.5-0.5,0.9-1,0.8c-52.9-3.9-94.5,32.5-104.7,42.3c-2.5,5.1-5.1,10.1-7.8,15.1c-5.6,10.4-11.4,20.6-17.7,30.7
			c-2.2,3.4-4.4,6.8-6.7,10.1c25.6-17,56.9-23.3,87.1-17.6c0.5,0.1,0.8,0.5,0.8,1c0,0,0,0,0,0c-0.1,0.5-0.6,0.8-1.1,0.7
			c-31.4-5.9-63.9,1.4-89.8,20.2c-3.5,4.9-7.1,9.8-10.9,14.5c-7.4,9.4-15.7,18-25,25.6l0,0c-1.2,0.9-2.9,0.7-3.9-0.5
			s-0.7-2.9,0.5-3.9c8.7-7,16.7-14.9,23.8-23.6c-0.7-6.8-6-40.5-40.8-78.1C598.7,431,598.8,430.4,599.1,430.1z"/>
		
			<linearGradient id="SVGID_9_" gradientUnits="userSpaceOnUse" x1="301.7336" y1="-17.91" x2="322.2064" y2="-17.91" gradientTransform="matrix(1 0 0 -1 -172.72 352.52)">
			<stop  offset="0" style="stop-color:#FFEB7E"/>
			<stop  offset="0.97" style="stop-color:#FFC04F"/>
		</linearGradient>
		<path class="st11" d="M148.7,369.3l-5.8-1.8c-0.4-0.1-0.6-0.4-0.8-0.8l-1.8-5.8c-0.2-0.6-0.8-0.9-1.4-0.8
			c-0.4,0.1-0.6,0.4-0.8,0.8l-1.8,5.8c-0.1,0.4-0.4,0.6-0.8,0.8l-5.8,1.8c-0.6,0.2-0.9,0.8-0.8,1.4c0.1,0.4,0.4,0.6,0.8,0.8l5.8,1.8
			c0.4,0.1,0.6,0.4,0.8,0.8l1.8,5.8c0.2,0.6,0.8,0.9,1.4,0.8c0.4-0.1,0.6-0.4,0.8-0.8l1.8-5.8c0.1-0.4,0.4-0.6,0.8-0.8l5.8-1.8
			c0.6-0.2,0.9-0.8,0.8-1.4C149.3,369.7,149,369.5,148.7,369.3z"/>
		
			<linearGradient id="SVGID_10_" gradientUnits="userSpaceOnUse" x1="853.5536" y1="-149.43" x2="874.0436" y2="-149.43" gradientTransform="matrix(1 0 0 -1 -172.72 352.52)">
			<stop  offset="0" style="stop-color:#FFEB7E"/>
			<stop  offset="0.97" style="stop-color:#FFC04F"/>
		</linearGradient>
		<path class="st12" d="M700.5,500.9l-5.8-1.8c-0.4-0.1-0.6-0.4-0.8-0.8l-1.8-5.8c-0.2-0.6-0.8-0.9-1.4-0.8
			c-0.4,0.1-0.6,0.4-0.8,0.8l-1.8,5.8c-0.1,0.4-0.4,0.6-0.8,0.8l-5.8,1.8c-0.6,0.2-0.9,0.8-0.8,1.4c0.1,0.4,0.4,0.6,0.8,0.8l5.8,1.8
			c0.4,0.1,0.6,0.4,0.8,0.8l1.8,5.8c0.2,0.6,0.8,0.9,1.4,0.8c0.4-0.1,0.6-0.4,0.8-0.8l1.8-5.8c0.1-0.4,0.4-0.6,0.8-0.8l5.8-1.8
			c0.6,0,1.1-0.5,1.1-1.1S701.1,500.8,700.5,500.9C700.5,500.8,700.5,500.8,700.5,500.9z"/>
		<path class="st13" d="M137.8,520.5v-269c0-10.7,8.7-19.4,19.4-19.4h513.7c10.7,0,19.4,8.7,19.4,19.4v269
			c0,10.7-8.7,19.4-19.4,19.4H157.2C146.5,539.9,137.8,531.2,137.8,520.5z"/>
		<rect x="208" y="255.3" class="st14" width="414.7" height="261.5"/>
		<line class="st15" x1="649.2" y1="429.3" x2="649.2" y2="342.7"/>
		<path class="st14" d="M649.2,467.8c-3.8,0-6.8,3-6.8,6.8s3,6.8,6.8,6.8c3.8,0,6.8-3,6.8-6.8l0,0C656,470.9,653,467.8,649.2,467.8z
			"/>
		<path class="st14" d="M649.2,449.1c-2,0-3.6,1.6-3.6,3.6s1.6,3.6,3.6,3.6c2,0,3.6-1.6,3.6-3.6
			C652.8,450.7,651.2,449.1,649.2,449.1L649.2,449.1z"/>
		<path class="st14" d="M158.8,332.9v93.9c0,8.5,6.9,15.3,15.3,15.3l0,0l0,0c8.5,0,15.3-6.9,15.3-15.3c0,0,0,0,0,0v-93.9
			c0-8.5-6.8-15.3-15.3-15.4c0,0,0,0,0,0l0,0C165.7,317.5,158.8,324.4,158.8,332.9C158.8,332.8,158.8,332.9,158.8,332.9z"/>
		<path class="st16" d="M416.4,257.4v256h206.2v-256C622.7,257.4,531.3,226,416.4,257.4z"/>
		<path class="st17" d="M404.1,262.8c0,0-121-29.3-196.1-5.4v256h208.5L404.1,262.8z"/>
		<path class="st17" d="M405.4,270.3c0,0-58.9-33.1-166.5-19.9v247.9c0,0,101.3-16.8,173.6,18L405.4,270.3z"/>
		<path class="st18" d="M132.8,286.1c0,0,44.8,9.8,95.6-11.7c68.7-29,81.4-51.8,81.4-51.8l-26.9-76c0,0-64.8,27.8-87.1,35.8
			s-89.9,27.7-89.9,27.7L132.8,286.1z"/>
		<polygon class="st19" points="282.9,146.6 291.3,171.7 213.2,229.6 115.5,235.4 105.9,210.1 		"/>
		<polygon class="st20" points="180.6,147.2 45.9,228.4 46.6,234.1 207.9,221.5 345.6,124.6 344.9,118.8 		"/>
		<polygon class="st21" points="179.9,141.5 45.9,228.4 207.2,215.8 344.9,118.8 		"/>
		<polyline class="st22" points="190.6,176 130.2,225.6 163.1,329 		"/>
		<polygon class="st23" points="168.8,351.7 175.4,333.2 160.5,319.9 153.9,338.4 		"/>
		<path class="st16" d="M416.4,257.4c0,0-45.6-43.8-166.5-23.9v252c0,0,94.2-7.1,166.5,27.8V257.4z"/>
		
			<linearGradient id="SVGID_11_" gradientUnits="userSpaceOnUse" x1="129.3" y1="-25.5189" x2="335.5101" y2="-25.5189" gradientTransform="matrix(-1 0 0 -1 751.9501 352.52)">
			<stop  offset="0.23" style="stop-color:#FFFFFF"/>
			<stop  offset="0.42" style="stop-color:#B9B7B8;stop-opacity:0.94"/>
			<stop  offset="0.61" style="stop-color:#797777;stop-opacity:0.88"/>
			<stop  offset="0.77" style="stop-color:#4A4748;stop-opacity:0.84"/>
			<stop  offset="0.89" style="stop-color:#2E2A2B;stop-opacity:0.81"/>
			<stop  offset="0.96" style="stop-color:#231F20;stop-opacity:0.8"/>
		</linearGradient>
		<path class="st24" d="M416.4,257.4v256h206.2v-256C622.7,257.4,519.5,224.2,416.4,257.4z"/>
		
			<linearGradient id="SVGID_12_" gradientUnits="userSpaceOnUse" x1="288.775" y1="199.3881" x2="256.905" y2="132.3581" gradientTransform="matrix(1 0 0 -1 -172.72 352.52)">
			<stop  offset="0" style="stop-color:#FFAA95"/>
			<stop  offset="0.94" style="stop-color:#FFCBB1"/>
		</linearGradient>
		<path class="st25" d="M130.1,148c-0.5-2.2-2.2-4-4.4-4.7c-0.2-0.1-0.5-0.1-0.7-0.2c-2.3-0.3-4.6,0.2-6.5,1.4
			c-3.1,1.9-3.2,5.8-4.3,9c-1.1,3.4-2.7,6.7-4.5,9.8c-3.2,4.8-7.3,10.2-11,15.2l-11,15.2c0,0-6.8,4.3-7.3,6.9s1.4,6.5,1.7,5.3
			c0.4-1.2,0.8-2.5,1.4-3.6c0,0-0.6,5.2,0.4,4.9s0.7-3.3,1.2-4.5s3.1-2.9,3.3-2.1c0.1,1.2-1.1,4.7,0,4c2.4-1.5,2.3-8.1,2.3-8.1
			l14.6-12.1c4.7-4.6,9.2-8.7,14-14.1c3.6-4.7,6.5-9.9,8.8-15.3C129.1,152.9,130.6,150.4,130.1,148z"/>
		
			<linearGradient id="SVGID_13_" gradientUnits="userSpaceOnUse" x1="295.7556" y1="201.4569" x2="280.3557" y2="173.3369" gradientTransform="matrix(1 0 0 -1 -172.72 352.52)">
			<stop  offset="0" style="stop-color:#FFAA95"/>
			<stop  offset="0.94" style="stop-color:#FFCBB1"/>
		</linearGradient>
		<path class="st26" d="M125.5,156.6c-1.1-0.7-9.5-5.8-9.5-5.8s-0.6,0.5-1.5,1.4c-0.1,0.5-0.3,0.9-0.4,1.3c-0.6,1.7-1.3,3.4-2,5.1
			c1.9,1.9,4.8,5.6,4.2,9.9c-0.8,4.4-7.1,12.3-7.1,12.3c3.4-3.2,6.7-6.4,10.1-10.3c2.9-3.7,5.3-7.7,7.2-12
			C126.4,157.8,126.1,157.1,125.5,156.6z"/>
		
			<linearGradient id="SVGID_14_" gradientUnits="userSpaceOnUse" x1="321.5204" y1="213.3797" x2="342.6904" y2="238.0596" gradientTransform="matrix(1 0 0 -1 -172.72 352.52)">
			<stop  offset="0.15" style="stop-color:#ED7B1D"/>
			<stop  offset="1" style="stop-color:#ED7B1D"/>
		</linearGradient>
		<path class="st27" d="M162,104.7c-3.1,3.6-5.4,7.8-6.6,12.4c-1.7,7.1,0.4,21.1,1.6,21.5s9.8-1.2,11.5-3.4s4.1-16.3,3.4-18
			S162,104.7,162,104.7z"/>
		<path class="st28" d="M262.3,66.4c0,0,2-6.2,3.2-8.1s17.8,6.8,21.7,9.5s-9.7-0.1-13.1-0.4s-7.3,2.4-7.3,2.4
			C264.8,69.6,263,68.3,262.3,66.4z"/>
		<path class="st28" d="M289.1,111.9c0,0,4.8-4.5,6.7-5.5s12.3,14.5,14.5,18.7s-8.4-4.8-11.3-6.7s-7.5-1.4-7.5-1.4
			C289.8,115.9,288.9,113.9,289.1,111.9z"/>
		<path class="st29" d="M289.3,111.4c-9.6,4.7-19.6,8.6-29.8,11.7c-5,1.5-10.1,2.7-15.3,3.7c-5,0.9-10.2,1.3-15.3,1.3
			c-10,0.2-20.2-0.5-30.4-1.3c9.4-2.9,18.6-5.8,28.1-9.7c2.8-1.1,5.5-2.5,8-4.3c2.3-1.7,4.6-3.5,6.6-5.5c3.8-3.8,7.3-7.8,10.4-12.1
			c6.1-8.3,11.6-17,16.4-26.1l-5.7-3.3c-5.7,8-12,15.6-18.8,22.7c-6.8,6.9-14.1,13.3-21.8,15c-9.1,2.5-19,4.2-28.9,5.8
			s-10,2.5-19.8,3.7l1.9,9.8h-0.2l-1.7,22.7c11.3,0.1,12.5,0.5,23.6,0s22.2-1.2,33.5-2.7c5.8-0.8,11.5-2,17.1-3.7
			c5.4-1.7,10.8-3.7,16-6c10.2-4.5,20.1-9.8,29.5-15.9L289.3,111.4z"/>
		
			<linearGradient id="SVGID_15_" gradientUnits="userSpaceOnUse" x1="425.9242" y1="252.15" x2="365.2642" y2="226.78" gradientTransform="matrix(1 0 0 -1 -172.72 352.52)">
			<stop  offset="6.000000e-02" style="stop-color:#F8E4D2"/>
			<stop  offset="1" style="stop-color:#E8D7BB"/>
		</linearGradient>
		<path class="st30" d="M189.2,122.1c7.4,1.5,9.4,4.8,9.4,4.8c9.4-2.9,18.6-5.8,28.1-9.7c2.8-1.1,5.5-2.5,8-4.3
			c2.3-1.7,4.6-3.5,6.6-5.5c3.8-3.8,7.3-7.8,10.4-12.1c0,0-7.8,9.5-22.4,16S196.4,117.7,189.2,122.1z"/>
		<path class="st31" d="M110.6,155.2c0,0,8.2,6.2,17,7.1c0,0,8.6-20,9.3-26.2s-8.6-12.6-16.2-8.4
			C116.7,130.5,115.1,139.6,110.6,155.2z"/>
		<path class="st32" d="M126.4,151.4c-8.1-0.8-13-9.3-10.1-16.9c2.9-7.3,6.8-15.8,10.6-18.3c7-4.5,31,2.7,51.9-5.9
			c5.5,6.8,5,29.6,0,35.9c-4.5,2.2-26.5,0.4-37,3.6C136.8,151.3,131.5,151.9,126.4,151.4z"/>
		
			<linearGradient id="SVGID_16_" gradientUnits="userSpaceOnUse" x1="288.4001" y1="232.6001" x2="301.0401" y2="218.0101" gradientTransform="matrix(1 0 0 -1 -172.72 352.52)">
			<stop  offset="0" style="stop-color:#FFAA95"/>
			<stop  offset="0.94" style="stop-color:#FFCBB1"/>
		</linearGradient>
		<path class="st33" d="M114.7,119.1c2.5,1.9,5.5,3,8.6,3.1c1.9,0.1,3.5,1.6,3.6,3.6c0.3,4.4-0.1,10.1-3.2,10.4
			c-2.7,0.3-3.4-7.7-3.4-7.7s-4.8-3.3-6.4-2.7S114.7,119.1,114.7,119.1z"/>
		
			<linearGradient id="SVGID_17_" gradientUnits="userSpaceOnUse" x1="317.7147" y1="197.3505" x2="290.8847" y2="132.4205" gradientTransform="matrix(1 0 0 -1 -172.72 352.52)">
			<stop  offset="0" style="stop-color:#FFAA95"/>
			<stop  offset="0.94" style="stop-color:#FFCBB1"/>
		</linearGradient>
		<path class="st34" d="M146.1,150.3c-0.1-3.5,0.5-6.8-2.6-8.7c-0.4-0.2-0.8-0.4-1.1-0.6c-4.5-1.8-9-0.6-11.5,3.6
			c-1.4,2.3-0.5,4.5-0.2,7c1,7.1,2,14.3,2.5,21.1c0.4,6.1-0.7,13.7-1.5,20.8l-1.3,20.8l0,0c-1,0.8-6.1,4.7-6,7.6
			c0.1,1.5,2.6-2,3.9-2.7c1-0.3,1,3.4,0.3,4.6s-3.9,3.1-3.5,4.2c0.4,1.1,5-3,5-3c-0.8,1.3-1.6,2.6-2.6,3.8c-0.9,1,4.1,0.2,6.3-2
			c1.8-1.8,1.7-8.5,1.7-10.9l0,0l5.8-20.7c1.5-7.3,3.6-14,4.1-22.4C145.8,165,146.4,157.7,146.1,150.3z"/>
		
			<linearGradient id="SVGID_18_" gradientUnits="userSpaceOnUse" x1="319.3814" y1="195.8188" x2="354.3314" y2="236.5588" gradientTransform="matrix(1 0 0 -1 -172.72 352.52)">
			<stop  offset="0" style="stop-color:#ED7B1D"/>
			<stop  offset="1" style="stop-color:#F7B01D"/>
		</linearGradient>
		<path class="st35" d="M152.2,148.8c0,0,2.3,4.2,17.3,2.7s15.3-5.5,15.3-5.5s-2.7-24.7-9.7-39.6c-1.5-3.3-5.2-5-8.7-4.1l-0.7,0.2
			c-3,0.7-5.2,3.2-5.6,6.3C159,118.5,156.8,137.9,152.2,148.8z"/>
		
			<linearGradient id="SVGID_19_" gradientUnits="userSpaceOnUse" x1="339.846" y1="243.6834" x2="342.696" y2="247.0034" gradientTransform="matrix(1 0 0 -1 -172.72 352.52)">
			<stop  offset="0.15" style="stop-color:#ED7B1D"/>
			<stop  offset="1" style="stop-color:#ED7B1D"/>
		</linearGradient>
		<path class="st36" d="M170.9,106.8c0,1.1-0.9,1.9-2,1.9s-1.9-0.9-1.9-2c0-1.1,0.9-1.9,1.9-1.9C170,104.8,170.9,105.7,170.9,106.8
			L170.9,106.8z"/>
		
			<linearGradient id="SVGID_20_" gradientUnits="userSpaceOnUse" x1="286.5633" y1="224.6886" x2="291.5133" y2="230.4586" gradientTransform="matrix(1 0 0 -1 -172.72 352.52)">
			<stop  offset="0" style="stop-color:#FFAA95"/>
			<stop  offset="0.94" style="stop-color:#FFCBB1"/>
		</linearGradient>
		<path class="st37" d="M114.3,120.7c-0.6,2.1-1.4,5.6-0.3,5.2s3.9,1.1,5.4,2.1c1.1-1.5,0.2-4.5-0.5-6.6c-1-0.4-1.9-0.8-2.8-1.4
			C115.5,120.3,114.9,120.5,114.3,120.7z"/>
		
			<linearGradient id="SVGID_21_" gradientUnits="userSpaceOnUse" x1="293.9398" y1="244.9303" x2="265.6498" y2="226.5303" gradientTransform="matrix(1 0 0 -1 -172.72 352.52)">
			<stop  offset="0" style="stop-color:#FFAA95"/>
			<stop  offset="0.94" style="stop-color:#FFCBB1"/>
		</linearGradient>
		<path class="st38" d="M98.5,130.3c-1.9-0.9-0.5-3.3-3.1-6.7s-7.7-9.3-2.1-16.2c0.1-0.1,0.1-0.1,0.2-0.2c4.6-5.5,13.4-4.9,17.9,0.8
			c1.1,1.3,2,2.8,2.8,4.3c1.8,3.9,5.7,11-0.2,18.6c-4.4,5.6-9.8-0.8-9.8-0.8S100.4,131.2,98.5,130.3z"/>
		<path class="st28" d="M116.8,113.3c-0.5-1.4-0.8-2.9-1.4-4.3c-0.9-2.7-2.4-5.2-4.5-7.3c-1.2-1.2-2.7-2-4.3-2.4
			c-1.5-0.3-3-0.2-4.5,0.3c-2.3,0.6-4.4,1.7-6.2,3.3c-0.4,0.3-0.8,0.7-1.1,1c-0.4,0.5-0.9,1.1-1.4,1.6c-0.6,1.3-1.2,2.5-1.9,3.7
			c-0.3,0.9-0.6,1.8-0.9,2.6c-0.1,0.8-0.3,1.7-0.6,2.5c-0.1,1.3-0.3,2.6-0.5,3.9c0.2,0.5,0.5,1,0.7,1.5c4.1-0.9,8.9-5.1,9.2-5.6
			c0.9-0.3,1.9,0,2.5,0.8c1.4,1.6,2.6,3.4,3.6,5.3c0.4,1.1,1.1,2,2,2.8c0.9,0.7,2.5,0.6,3-0.4c0.8-1.5-1.3-4.6-1.8-6.1
			c-0.4-0.8-0.4-1.8-0.1-2.7c0.4-0.7,1.2-1.2,2-1.2c2.2,0.1,2.4,3.1,2.9,4.6c0.2,0.9,0.9,1.7,1.8,2c1.2,0.3,2.3-0.9,2.4-2.1
			C118,115.9,117.2,114.5,116.8,113.3z"/>
		
			<linearGradient id="SVGID_22_" gradientUnits="userSpaceOnUse" x1="298.716" y1="167.0005" x2="321.996" y2="194.1205" gradientTransform="matrix(1 0 0 -1 -172.72 352.52)">
			<stop  offset="0" style="stop-color:#FFAA95"/>
			<stop  offset="0.94" style="stop-color:#FFCBB1"/>
		</linearGradient>
		<path class="st39" d="M142.3,191.1c1.3-5.8,2.8-11.5,3.2-18.4s0.8-13.6,0.7-20.3c-3.6,0.8-10.2,1.7-15,2.4
			c0.5,3.3,0.9,6.5,1.3,9.7c2.5,0.7,6.5,2.1,8.1,4.9C142.9,173.5,143.2,187,142.3,191.1L142.3,191.1z"/>
		<path class="st31" d="M129.4,162.9c0,0,10,2.6,18.4,0c0,0,0.2-21.8-1.5-27.7s-12.8-8.3-18.2-1.5
			C125.5,137.9,127.5,146.9,129.4,162.9z"/>
		<path class="st28" d="M168.9,107.3c-0.5-0.1-0.9-0.5-0.8-1c0-0.4,0.4-0.8,0.8-0.8c2.5,0,4.5-2,4.5-4.5V90.5
			c0.1-2.5-1.8-4.6-4.3-4.8s-4.6,1.8-4.8,4.3c0,0.1,0,0.3,0,0.4v10.3c0,0.6,0.1,1.2,0.3,1.7c0.2,0.5-0.1,0.4-0.6,0.7s-0.9,0.5-1.1,0
			c-0.3-0.8-0.5-1.6-0.5-2.4V90.5c-0.2-3.6,2.5-6.6,6.1-6.8s6.6,2.5,6.8,6.1c0,0.2,0,0.5,0,0.7v10.3
			C175.3,104.4,172.4,107.3,168.9,107.3z"/>
		
			<linearGradient id="SVGID_23_" gradientUnits="userSpaceOnUse" x1="337.54" y1="267.7395" x2="345.63" y2="267.7395" gradientTransform="matrix(1 0 0 -1 -172.72 352.52)">
			<stop  offset="6.000000e-02" style="stop-color:#F8E4D2"/>
			<stop  offset="1" style="stop-color:#E8D7BB"/>
		</linearGradient>
		<path class="st40" d="M168.9,88.8c-2.2,0-4-1.8-3.9-4c0-2.2,1.8-4,4-3.9c2.2,0,3.9,1.8,4,4c0,0.1,0,0.3-0.1,0.4
			c-0.1,0.2-0.1,0.2-0.3,0.1l-0.9-0.5c-0.2-0.1-0.4-0.2-0.6-0.3c-0.1-0.1-0.1-0.3-0.1-0.4c-0.1-0.3-0.2-0.6-0.5-0.8
			c-0.4-0.5-1-0.7-1.6-0.7c-1.2,0-2.2,1-2.2,2.2c0,1.2,1,2.2,2.2,2.2c0.5,0,0.9-0.1,1.3-0.4c0.1-0.1,0.2-0.1,0.4-0.2
			c0.1,0,0.2,0,0.3,0.1l0.1,0l0.1,0.1c0.2,0.1,0.3,0.2,0.5,0.3c0.1,0.1,0.1,0.3,0.1,0.4c0,0.3-0.2,0.6-0.4,0.8
			C170.5,88.5,169.7,88.8,168.9,88.8z"/>
		<path class="st41" d="M184.5,0.1c-0.6,0-1.3,0-1.9-0.1l0,0l-14.7,83.9c-0.1,0.5,0.3,1,0.8,1.1h0.2c0.5,0,0.8-0.3,0.9-0.8
			L184.5,0.1L184.5,0.1z"/>
		<path class="st41" d="M169.4,0.2c-0.5,0-1,0-1.5,0v84c0.1,0.5,0.5,0.9,1,0.8c0.4,0,0.8-0.4,0.8-0.8v-84L169.4,0.2z"/>
		<path class="st41" d="M153.2,0L153.2,0l14.7,84.3c0.1,0.5,0.5,0.8,0.9,0.8h0.2c0.5-0.1,0.8-0.6,0.8-1.1L155.1,0.1
			C154.5,0.1,153.9,0.1,153.2,0z"/>
		
			<linearGradient id="SVGID_24_" gradientUnits="userSpaceOnUse" x1="791.15" y1="190.735" x2="811.64" y2="190.735" gradientTransform="matrix(1 0 0 -1 -172.72 352.52)">
			<stop  offset="0" style="stop-color:#FFEB7E"/>
			<stop  offset="0.97" style="stop-color:#FFC04F"/>
		</linearGradient>
		<path class="st42" d="M638.1,160.7l-5.8-1.8c-0.4-0.1-0.6-0.4-0.8-0.8l-1.8-5.8c-0.2-0.6-0.8-0.9-1.4-0.7
			c-0.4,0.1-0.6,0.4-0.7,0.7l-1.8,5.8c-0.1,0.4-0.4,0.7-0.8,0.8l-5.7,1.8c-0.6,0.2-0.9,0.8-0.7,1.4c0.1,0.4,0.4,0.6,0.7,0.7l5.8,1.8
			c0.4,0.1,0.7,0.4,0.8,0.8l1.8,5.8c0.2,0.6,0.8,0.9,1.4,0.7c0.4-0.1,0.6-0.4,0.7-0.7l1.8-5.8c0.1-0.4,0.4-0.6,0.8-0.8l5.8-1.8
			c0.6-0.2,0.9-0.9,0.7-1.5C638.7,161.1,638.5,160.8,638.1,160.7z"/>
		
			<linearGradient id="SVGID_25_" gradientUnits="userSpaceOnUse" x1="676.6211" y1="223.675" x2="697.094" y2="223.675" gradientTransform="matrix(1 0 0 -1 -172.72 352.52)">
			<stop  offset="0" style="stop-color:#FFEB7E"/>
			<stop  offset="0.97" style="stop-color:#FFC04F"/>
		</linearGradient>
		<path class="st43" d="M523.6,127.8l-5.8-1.8c-0.4-0.1-0.7-0.4-0.8-0.8l-1.7-5.8c-0.2-0.6-0.8-0.9-1.4-0.7
			c-0.4,0.1-0.6,0.4-0.7,0.7l-1.8,5.8c-0.1,0.4-0.4,0.7-0.8,0.8l-5.8,1.8c-0.6,0.2-0.9,0.8-0.7,1.4c0.1,0.4,0.4,0.6,0.7,0.7l5.8,1.8
			c0.4,0.1,0.7,0.4,0.8,0.8l1.8,5.8c0.2,0.6,0.8,0.9,1.4,0.7c0.4-0.1,0.6-0.4,0.7-0.7l1.8-5.8c0.1-0.4,0.4-0.7,0.8-0.8l5.8-1.8
			c0.6-0.2,0.9-0.8,0.8-1.4C524.2,128.1,523.9,127.9,523.6,127.8z"/>
		
			<linearGradient id="SVGID_26_" gradientUnits="userSpaceOnUse" x1="836.14" y1="41.555" x2="856.63" y2="41.555" gradientTransform="matrix(1 0 0 -1 -172.72 352.52)">
			<stop  offset="0" style="stop-color:#FFEB7E"/>
			<stop  offset="0.97" style="stop-color:#FFC04F"/>
		</linearGradient>
		<path class="st44" d="M683.1,309.9l-5.8-1.8c-0.4-0.1-0.6-0.4-0.8-0.8l-1.8-5.8c-0.2-0.6-0.8-0.9-1.4-0.7
			c-0.4,0.1-0.6,0.4-0.7,0.7l-1.8,5.8c-0.1,0.4-0.4,0.6-0.8,0.8l-5.8,1.8c-0.6,0.2-0.9,0.8-0.8,1.4c0.1,0.4,0.4,0.6,0.8,0.8l5.8,1.8
			c0.4,0.1,0.6,0.4,0.8,0.8l1.8,5.8c0.2,0.6,0.8,0.9,1.4,0.7c0.4-0.1,0.6-0.4,0.7-0.7l1.8-5.8c0.1-0.4,0.4-0.6,0.8-0.8l5.8-1.8
			c0.6-0.2,0.9-0.8,0.7-1.4C683.8,310.3,683.5,310,683.1,309.9z"/>
		
			<linearGradient id="SVGID_27_" gradientUnits="userSpaceOnUse" x1="515.561" y1="274.625" x2="536.0432" y2="274.625" gradientTransform="matrix(1 0 0 -1 -172.72 352.52)">
			<stop  offset="0" style="stop-color:#FFEB7E"/>
			<stop  offset="0.97" style="stop-color:#FFC04F"/>
		</linearGradient>
		<path class="st45" d="M362.5,76.8l-5.8-1.8c-0.4-0.1-0.6-0.4-0.8-0.8l-1.8-5.8c-0.2-0.6-0.8-0.9-1.4-0.8c-0.4,0.1-0.6,0.4-0.8,0.8
			l-1.8,5.8c-0.1,0.4-0.4,0.6-0.8,0.8l-5.8,1.8c-0.6,0.2-0.9,0.8-0.7,1.4c0.1,0.4,0.4,0.6,0.7,0.7l5.8,1.8c0.4,0.1,0.6,0.4,0.8,0.8
			l1.8,5.8c0.2,0.6,0.8,0.9,1.4,0.8c0.4-0.1,0.6-0.4,0.8-0.8l1.8-5.8c0.1-0.4,0.4-0.6,0.8-0.8l5.8-1.8c0.6-0.2,1-0.8,0.8-1.4
			C363.2,77.2,362.9,76.9,362.5,76.8z"/>
		
			<linearGradient id="SVGID_28_" gradientUnits="userSpaceOnUse" x1="354.6311" y1="57.305" x2="375.1144" y2="57.305" gradientTransform="matrix(1 0 0 -1 -172.72 352.52)">
			<stop  offset="0" style="stop-color:#FFEB7E"/>
			<stop  offset="0.97" style="stop-color:#FFC04F"/>
		</linearGradient>
		<path class="st46" d="M201.6,294.1l-5.8-1.8c-0.4-0.1-0.6-0.4-0.8-0.8l-1.7-5.8c-0.2-0.6-0.8-0.9-1.4-0.7
			c-0.4,0.1-0.6,0.4-0.7,0.7l-1.8,5.8c-0.1,0.4-0.4,0.6-0.8,0.8l-5.8,1.8c-0.6,0.2-0.9,0.8-0.7,1.4c0.1,0.4,0.4,0.6,0.7,0.7l5.8,1.8
			c0.4,0.1,0.6,0.4,0.8,0.8l1.8,5.8c0.2,0.6,0.8,0.9,1.4,0.7c0.4-0.1,0.6-0.4,0.7-0.7l1.8-5.8c0.1-0.4,0.4-0.6,0.8-0.8l5.8-1.8
			c0.6-0.2,0.9-0.8,0.8-1.4C202.2,294.5,202,294.2,201.6,294.1z"/>
		<path class="st47" d="M87.4,520.3l2.1,32.5l-0.3,9.8l37.1-0.2c0.9,0,1.7-0.8,1.7-1.7c0,0,0,0,0,0l0,0c0-0.7-0.4-1.3-1.1-1.6
			l-15.3-7.6l-0.6-33.8"/>
		<path class="st48" d="M131,562c-0.4-1.2-2.3-2.6-3-2.9l-16.4-7.5c-9.7,3.9-22.2,0.9-22.2,0.9l-2.2,13.2c0,0.4,0.4,0.8,0.8,0.8
			c0,0,0,0,0,0l41.5-0.2C132,566.2,131,562,131,562z"/>
		<path class="st49" d="M76.2,417.5c-1.8,8-1.8,16.3,0,24.4l9.5,104.9h29.6c0,0-3.6-91.1-5.7-129.2"/>
		<path class="st47" d="M56.6,520.5L55.9,553l-0.3,9.8l38.4-0.2c0.9,0,1.7-0.8,1.7-1.7c0,0,0,0,0,0l0,0c0-0.7-0.4-1.3-1.1-1.6
			l-16.6-7.6l2.2-33.7"/>
		<path class="st50" d="M97.4,562.2c-0.4-1.2-1.1-2.6-1.8-2.9L78,551.7c-9.7,3.9-22.2,0.9-22.2,0.9l-2.2,13.2c0,0.4,0.4,0.8,0.8,0.8
			l42.7-0.2C98,566.4,97.4,562.2,97.4,562.2z"/>
		<path class="st51" d="M56.8,417.5c-1.7,7.6-1.8,15.4-0.3,23c0.2,0.9,0.3,1.8,0.2,2.7l-2.6,103.5h29.6c0,0,7.3-96.2,6.5-129.2"/>
		<path class="st47" d="M112.9,354.8c0,0,10.9,12.9,14,13.6s19.9-11.4,19.9-11.4l7.9,11.7c0,0-22.3,19.8-30.3,19
			c-7.8-0.8-24.4-17.8-24.4-17.8"/>
		<path class="st52" d="M92,344.7c0,0,7.6,0.7,12.6,3.1s19.6,18.3,19.6,18.3l-15,14.4l-11.1-11.6"/>
		<path class="st47" d="M140.9,361.1c4.7-3.3,22.6-16.1,23.5-15.5s-3,3.9-2.2,4.2s7.2-4.5,7.9-3.8c1,1-5.8,5.6-5.8,5.6
			s7.8-4.3,8.4-3.2c0.4,0.8-7.3,6-7.3,6s6.9-4.2,7.3-3.3s-6.5,6.2-6.5,6.2s5.9-3.9,6-3c0.1,1.5-15.4,12.4-24.2,19.7"/>
		<path class="st53" d="M160.9,350.6c-1.3,2.6-0.6,4.9-3,7.4"/>
		<line class="st54" x1="63.3" y1="381.3" x2="70.6" y2="366.8"/>
		<line class="st54" x1="107.8" y1="379.1" x2="105.5" y2="361.1"/>
		<path class="st55" d="M80,334.1l-1.9,9.8c1.5,1.7,8.6,5.4,13.9,0.8l0.2-6.8L80,334.1z"/>
		<path class="st47" d="M94.3,322.9c0,0,4.4,12.3,0.5,16.3c-2,2.1-8.1,2.4-10.7,0.4c-1.9-1.5-4.7-11-3.6-12.6
			C84.5,320.5,94.3,322.9,94.3,322.9z"/>
		<path class="st56" d="M93.3,315.8c-2.4-1.2-5.1-1.7-7.7-1.5c-2.3,0.2-5.5,0.8-7.5,2.1c-1.8,1.2-3.2,3-4,5c-1.3,3.4-1,7.1,0.6,10.4
			c0.5,1.1,1.3,2.2,2.1,3.1c1,0.9,1.9,1.9,2.6,3c0.8-2.2,1.3-4.4,1.7-6.7c0-0.1,0.1-0.2,0.1-0.3c-0.1-1.1-0.1-2.1,0-3.2
			c0.1-0.6,0.4-1.3,0.7-1.8c0-0.1,0-0.2,0-0.3l0.2,0.1c0.6-0.8,1.3-1.5,2.2-2c2-1.1,4.2-1.4,6.4-1.1l0,0l0,0c1.1,0.1,2.1,0.5,3,1
			c0.3,0.2,0.6,0.4,0.8,0.7l0.1,0.1c0.2,0,0.3,0,0.5,0c0.5,0,0.9-0.1,1.3-0.4c0.5-0.5,0.8-1.1,0.8-1.8
			C97.5,319.5,95.7,317,93.3,315.8z"/>
		<path class="st47" d="M81.3,332.2c-1.2-1.9-2.3-1.8-3-0.9c-0.9,1.2,0.4,4,1.1,4.6c1.4,1.1,2.7,1.1,2.9-0.1"/>
		<path class="st57" d="M78.1,343.9c-22.8,16.6-21.3,50.8-21.3,73.6c8.2,2.7,46.7,2.4,53.6,0c-0.5-11.1-2.4-47.4-5.5-58.6
			c-1.8-4.2-12.9-14.2-12.9-14.2L78.1,343.9z"/>
		
			<rect x="62" y="390.3" transform="matrix(0.4799 -0.8773 0.8773 0.4799 -313.1131 283.0598)" class="st16" width="40.5" height="30.6"/>
		<line class="st58" x1="83.7" y1="386.7" x2="97.2" y2="394"/>
		<line class="st58" x1="77.3" y1="388.7" x2="99.1" y2="400.6"/>
		<line class="st58" x1="75.1" y1="392.7" x2="96.9" y2="404.7"/>
		<line class="st58" x1="72.9" y1="396.8" x2="94.7" y2="408.7"/>
		<line class="st58" x1="70.7" y1="400.8" x2="92.5" y2="412.7"/>
		<line class="st58" x1="68.5" y1="404.8" x2="90.3" y2="416.7"/>
		<line class="st58" x1="66.3" y1="408.8" x2="88.1" y2="420.8"/>
		<line class="st58" x1="64.1" y1="412.9" x2="85.9" y2="424.8"/>
		<path class="st47" d="M69.1,412.9l-14.5-7c2.7,1.6,26.8,13.3,28.8,14.4c2.1,1.1,4.3,1.9,6.6,2.4c0.4,0.1,0.9,0.1,1.4,0
			c0.5-0.1,0.7-0.6,0.6-1.1c0.8,0.1,1.6-0.4,1.7-1.2c0.1-0.5-0.1-0.9-0.4-1.3c0.6-0.2,1.2-0.4,1.6-0.9c0.5-0.4,0.6-1.1,0.2-1.7
			c-0.1-0.1-0.2-0.2-0.2-0.3c0-0.1,0.1-0.2,0.1-0.2c0.4-0.3,0.9-0.5,1.3-0.8c0.4-0.3,0.6-0.8,0.5-1.3c-0.1-0.3-0.3-0.5-0.5-0.6
			l-4-3.2c-0.2-0.2-0.5-0.5-0.3-0.7c0.1-0.1,0.3-0.1,0.4-0.1c1,0.1,1.9,0.1,2.9,0c0.3,0,0.6-0.1,0.7-0.4c0-0.1,0-0.3-0.1-0.4
			c-0.3-0.4-0.7-0.8-1.2-1c-5.3-3-16.1-8.7-16.1-8.7"/>
		<path class="st47" d="M48.8,362.6c0,0-12.7,24.9-9,32.1c4.3,8.3,35,20.6,35,20.6l7.4-14.5c0,0-21.8-11.9-21.8-16.1
			c0-3.6,6.5-14.7,6.5-14.7"/>
		<path class="st52" d="M78.1,343.9c0,0-14.3-3.4-22.5,6.8c-5.1,6.5-9,13.8-11.5,21.7l19.2,8.9l8.8-17.3"/>
		<path class="st59" d="M423.4,186.6l-28.7-10.6c13.3,46.5-1,40.7,2.4,58.8c16.3,5,32,3.1,47.1-5.3
			C429,227.2,423.4,186.6,423.4,186.6z"/>
		<path class="st60" d="M404.2,121.8c-8.8-3.1-6.4-11.8-3-13.3s11.8,0.1,10,8.3S404.2,121.8,404.2,121.8z"/>
		<path class="st61" d="M405.1,116.6c-3.8-1.4-5.5-3.8-6-6.2c-1.9,3.1-1.8,8.9,5,11.4c0,0,5.2,3.3,7-4.9c0.2-0.9,0.3-1.9,0.2-2.8
			C409.2,119.1,405.1,116.6,405.1,116.6z"/>
		<path class="st59" d="M406.6,122.5c-6.9-1.8-5-6.8-2.4-7.7s9.3,0.1,7.8,4.8S406.6,122.5,406.6,122.5z"/>
		<path class="st60" d="M408.3,158.3c-12.2-8.7-12-29.5-6.6-37.5s20.1-7.9,26.4-0.7s6.9,18.8,1.5,25S408.3,158.3,408.3,158.3z"/>
		<path class="st61" d="M430.3,138.5c-0.3-13-2.1-16.3-7.6-19.6c0,0,6.5,5.4,3.4,13.1L430.3,138.5z"/>
		<path class="st61" d="M426.4,138.2c-3.7-13.8-6.4-17-12.7-19.4c0,0,7.8,4.5,6.9,13.3L426.4,138.2z"/>
		<path class="st61" d="M414.8,134c-6.7-5.6-9.6-12.8-5.4-17.8c0.3-0.4,0.7-0.7,1.1-1.1c-3.6,0.7-6.7,2.7-8.9,5.6
			c-5.4,8-5.5,28.8,6.6,37.5c0,0,15.8-7.1,21.2-13.2c1.9-2.2,3-4.9,3.4-7.8C428.5,141.6,421.2,139.4,414.8,134z"/>
		<path class="st62" d="M445.8,212.5c-0.9-19.9-21.3-42.4-23.4-42.6s-1.7,8.3,3.4,16.7s10.8,28.1,11.4,30.2S446,216.1,445.8,212.5z"
			/>
		<path class="st62" d="M422.7,168.1c-1-0.1-1.5,2.1-1.2,5.3c4,3.1,20.5,24.2,22.3,42.4c1.1-0.7,1.9-1.9,2-3.2
			C444.9,192.6,424.8,168.3,422.7,168.1z"/>
		<path class="st62" d="M376.1,213.8c0.9-19.9,21.3-44.9,23.4-45s1.4,14.2-3.8,22.5s-10.4,24.7-11.1,26.8S375.9,217.3,376.1,213.8z"
			/>
		<path class="st62" d="M388.6,212.6c-3.9-3.2-11.6-4.3-13.6-3s-1.2,10.5,4.5,12.1S388.6,212.6,388.6,212.6z"/>
		<path class="st63" d="M417.1,234.2l-62.3-26.3c14.4,22.4,35.1,43.6,42.1,45.6s31.3,2.9,36.1,1s42.2-41.8,42.2-41.8
			S426.4,234,417.1,234.2z"/>
		<path class="st59" d="M398.6,169.3c-4.1,7.2,0,33.5,1.9,35.3s28.9-1.3,30.2-2.5s-5.3-32.1-7.5-33.7s-9.1-4.4-10.7-4.5
			S399,168.5,398.6,169.3z"/>
		<path class="st64" d="M422.7,207.1c0,2.3-1.3,2.9-1.6,4.4s-1-0.6-0.7-1.9S422.7,207.1,422.7,207.1z"/>
		<path class="st47" d="M418.7,208.9c2.1,1.5,3.1,1,3.5,0.4c0.4-0.6,0.7-1.2,1-1.9l-2.4-0.7l0.1,1.5
			C420.8,208.3,417.3,207.9,418.7,208.9z"/>
		<path class="st47" d="M417.1,209.5c2.1,1.5,3.1,1,3.5,0.4c0.4-0.6,0.7-1.2,1-1.9l-2.4-0.7l0.1,1.5
			C419.2,208.9,415.7,208.6,417.1,209.5z"/>
		<path class="st47" d="M380.3,212.9c9.2-3.5,36.9-6.8,36.9-6.8l0.2,0.7c0,0-27,15.6-35.5,14S376.6,214.4,380.3,212.9z"/>
		<path class="st47" d="M422.6,206.5c-1.7-1.5-5.3-1.2-8.3,0.1l-0.9,1.8c2.5-0.5,6.2,0.5,7.3,0.8S424.3,208,422.6,206.5z"/>
		<path class="st47" d="M422.4,206.4c1.9,1.6,4.8,5.3,4.8,6s-2.3-1.5-2.8-2.2c-0.9-0.9-1.8-1.7-2.8-2.4L422.4,206.4z"/>
		<polygon class="st65" points="438.5,175.4 417.3,222.1 396,223.2 394.7,224.4 461.3,223.4 484.1,175.4 		"/>
		<polygon class="st66" points="418.9,224 440.8,175.4 438.5,175.4 417.3,222.1 396,223.2 394.7,224.4 		"/>
		<path class="st67" d="M477.7,198.8c-8.4,1.9-27.5,23.1-49.8,54.9l0.5,1.2c0,0,38.9-30,43.5-35.5S486.2,196.9,477.7,198.8z"/>
		<path class="st67" d="M355.7,206c-5.1,3.6,5.8,11.1,15.9,21.4s28.7,13.5,57.8,27.4l1.2-0.7C395.9,221.5,360.7,202.4,355.7,206z"/>
		<path class="st68" d="M405.1,166.1c-0.1-14.3,2-22.6,2-22.6l8.5,7.7l-0.4,12.9c0,0-2,4.3-4.7,4.7S405.1,166.1,405.1,166.1z"/>
		<path class="st47" d="M405.8,139.4c-4.6,19.9,9.5,23.5,11.4,23.5c2.8,0,12.7-8.1,14.2-23.4c0.8-8.2-0.4-10.8-8.6-12
			S407,134.2,405.8,139.4z"/>
		<path class="st47" d="M407.5,152.2c1-10.5,0.1-11.8-3.2-11.8C400.6,140.3,400.3,150.4,407.5,152.2z"/>
		<path class="st47" d="M406.6,150.5c0-4-0.4-4.5-1.8-4.4C403.1,146.3,403.4,150.1,406.6,150.5z"/>
		<path class="st69" d="M672.3,532.1h68.4c12.1,0,15.6,25.8,3.5,25.8h-68.5C681.9,554.3,681,536.1,672.3,532.1z"/>
		<path class="st70" d="M739.6,530.8h69.2c13.8-0.4,15.3,27.9,1.5,28.3h-69.2C752.9,558.7,751.4,530.4,739.6,530.8z"/>
		<path class="st70" d="M671.6,530.8h135.5l0.6,2.7H672.2c-0.8,0-1.6-0.5-1.8-1.3l0,0c-0.1-0.6,0.3-1.2,0.9-1.3
			C671.4,530.8,671.5,530.8,671.6,530.8z"/>
		<path class="st70" d="M673,556.8h135.2l0.6,2.3H673.6c-0.8,0-1.5-0.4-1.8-1.2l0,0C671.6,557.3,672.1,556.8,673,556.8z"/>
		<path class="st71" d="M671,530.8h72.3l0.3,2.7h-72.3c-0.4,0-0.9-0.6-1-1.3l0,0C670.3,531.4,670.6,530.8,671,530.8z"/>
		<path class="st71" d="M671.8,556.8h72.2l0.3,2.3h-72.2c-0.4,0-0.9-0.5-1-1.2l0,0C671,557.3,671.3,556.8,671.8,556.8z"/>
		<path class="st71" d="M736.5,532.9h69.2c13.8-0.3,15.3,23.8,1.5,24.1H738C754.8,555.9,753.3,531.8,736.5,532.9z"/>
		<path class="st72" d="M738.3,533.8l61.1,0.3c12.3-0.3,13.7,22.2,1.4,22.5h-61.9C749.5,556.3,748.9,533.5,738.3,533.8z"/>
		<path class="st65" d="M747,536.8h48.6c9.7-0.2,10.7,16.8,1.1,17H748C756.3,553.6,755.3,536.6,747,536.8z"/>
		<path class="st73" d="M727.8,558.6h97.7c6,0,6.1,32,0.1,32h-97.7C735.7,590.6,735.6,558.6,727.8,558.6z"/>
		<path class="st72" d="M657.6,562.4h70.1c12.4,0,12.5,24.5,0.1,24.5h-70.1C664.4,583.5,666,566.3,657.6,562.4z"/>
		<path class="st65" d="M711.2,582c9.6,0,9.6-14.7,0-14.7H662c1.9,4.4,1.6,10.4-0.3,14.7H711.2z"/>
		<path class="st74" d="M658.3,558.6h80.8v5.7h-80.8c-1,0-1.9-1.3-1.9-2.8l0,0C656.4,559.9,657.2,558.6,658.3,558.6z"/>
		<path class="st74" d="M658.3,585h80.8v5.6h-80.8c-1,0-1.9-1.3-1.9-2.8l0,0C656.4,586.2,657.3,585,658.3,585z"/>
		<path class="st74" d="M727.8,590.6h13.4c4.6-6,4.6-26-0.1-32h-13.4C735.6,558.6,735.7,590.6,727.8,590.6z"/>
		<g>
			<path class="st72" d="M817.7,587.7H748v-1.1c2.1,0,3.6-5.1,3.6-11.8s-1.6-12-3.7-12v-1.2h69.7c2.8,0,3.8,7.1,3.8,13.2
				C821.4,580.8,820.4,587.7,817.7,587.7z M750.2,586.5h67.5c1.3,0,2.7-4.4,2.7-11.8c0-6.6-1.2-12-2.7-12h-67.5
				c1.8,2.2,2.6,7.1,2.6,12C752.7,579.7,751.9,584.3,750.2,586.5z"/>
		</g>
		<path class="st57" d="M740.2,512.3c24.7,7.8,85.9,18.1,85.9,18.1l-0.3,1h-95.1L740.2,512.3z"/>
		<polygon class="st52" points="734.4,522 730.6,531.4 825.7,531.4 825.7,531.4 		"/>
		<path class="st65" d="M736,498.4c-19.4-11.4-21.1-14.1-24.5-21.2c-3.4-7.1-6.3-21.8,1.1-22.3s20.7,24.3,26.4,23.8
			S746.8,504.7,736,498.4z"/>
		<path class="st75" d="M740.7,478.8c-1.2,2.3-5.8,4.7-8.4,2.1c-10.9-10.8-12.3-20.7-17.9-23.7c-0.6-0.3-5.3,0.4-5.6-0.3
			c-2.2,4.6,0.1,14.3,2.7,19.7c3.4,7.1,5.1,9.8,24.5,21.2C745.7,503.6,745.1,482.8,740.7,478.8z"/>
		<path class="st65" d="M719.4,462c-4.3-7.8-9.9-10.8-9.9-10.8s-15.3-4.8-20.4,8.1c-5,12.9,12.2,52.8,15.2,60.3s6.3,9.9,23,8.7
			l14.1-15.3C725.5,500.2,722.2,467.1,719.4,462z"/>
		<path class="st75" d="M727.4,490.4c1.2,8.6-8.6,17.5-12.3,17.2c-5.8-0.5-13.5-22.1-19.8-40.3c-1.5-4.3-2.4-8.8-2.7-13.3
			c-1.6,1.5-2.8,3.3-3.5,5.3c-5,12.9,12.2,52.8,15.2,60.3s6.3,9.9,23,8.7l14.1-15.3C734.9,507.7,730.5,499.1,727.4,490.4z"/>
		<polygon class="st76" points="725.7,474.3 752.3,471.7 779,475.8 751.1,477.4 725.5,475.3 		"/>
		<polygon class="st77" points="756.3,472.3 752.3,471.7 725.7,474.3 725.5,475.3 729.5,475.6 		"/>
		<polygon class="st65" points="759.1,429.7 752.3,471.7 779,475.8 787.7,438.4 		"/>
		<polygon class="st76" points="761.4,430.4 759.1,429.7 752.3,471.7 755,472.1 		"/>
		<path class="st65" d="M709.2,499.4c-16.7-15.1-17.8-16.7-19.7-24.4s-1.7-22.7,5.6-21.6c7.3,1,15.2,26.8,20.9,27.5
			S718.4,507.7,709.2,499.4z"/>
		<path class="st75" d="M715.9,480.9c-3.7-0.4-8.1-11-12.8-18.9c-2.7-4.6,6.4,18.5,12.1,19.2c4.5,0.5,3.5,16.8-1.7,19.7
			C719.3,499.1,720.6,481.5,715.9,480.9z"/>
		<path class="st75" d="M709.3,487.6c-16.8-15.1-17.8-18.1-19.7-25.8c-0.2-0.7-0.3-1.5-0.5-2.4c-0.9,5.1-0.8,10.4,0.4,15.5
			c1.9,7.7,3,10.7,19.7,25.8c7.9,7.2,11.5-12,8.7-18.1C716.4,487.8,713.4,491.4,709.3,487.6z"/>
		<path class="st64" d="M739.5,479.7c10.2-3.9,31.3-3.3,31.3-3.3l-2.6,3.7c0,0-24.4,20.5-30.3,18.3
			C731.7,496,735.3,481.2,739.5,479.7z"/>
		<path class="st47" d="M709,479.9c5.5-9.5,17.9-18,17.9-18l5.6,3.8c0,0-12.9,34.4-18.7,35.7C708,502.7,706.8,483.6,709,479.9z"/>
		<path class="st64" d="M713.7,489.8c-2.8,0.6-4.5-3.5-5.3-8.3c-1.3,5.9,0.2,21.1,5.4,19.9c5.8-1.3,18.7-35.7,18.7-35.7
			S717.5,488.9,713.7,489.8z"/>
		<path class="st78" d="M721.6,405.9L721.6,405.9c-0.3-0.4-0.7-0.8-1.1-1.1l-0.6-0.3c-0.8-0.1-1.6-0.4-2.4-0.8
			c-0.7-0.1-1.5-0.3-2.1-0.6c-3,0.1-6.1-0.2-9,0.2c-5.4,0.6-10.6,5.3-12.5,10.2c-0.4,1-0.7,1.9-0.9,2.9c0.2,1.3,0.3,2.5,0.3,3.8
			c0,0.7,0,1.3,0,2s0.3,1.3,0.4,2c0.7,1.1,1.1,2.4,1,3.7c0.3,1.5,0.5,2.9,0.7,4.4c0.5,0.8,0.8,1.7,1,2.6c0.3,0.3,0.6,0.6,0.8,1
			c0.3,0.3,0.6,0.6,0.9,0.8l1.6,1.2c0.3,0.2,0.6,0.5,0.9,0.7c0.5,0.4,0.9,1,1.3,1.6l19.8-18.2c0.4,0.1,0.8,0.2,1.3,0.3
			c0.1-0.2,0.2-0.4,0.2-0.5c1.1-2.5,1.4-5.3,1-8.1C723.7,410.9,722.3,408.4,721.6,405.9z"/>
		<path class="st47" d="M700.9,430.5l-5.2,21.3c5.3,0.8,10.1,3.6,14.4,8.4l2.5-22.9L700.9,430.5z"/>
		<path class="st57" d="M754.1,478.1l-6.3-2.8c-13.6,3.7-35.5,48.1-35.5,48.1s5.6,7.8,11.8,7.8H740l8.2-38.1l16.9,36.8l1.4-0.5
			C766.5,529.3,757.4,485.8,754.1,478.1z"/>
		<path class="st52" d="M747.4,480.5c0,0-8.5,5.3-15.5,9.9c-10.2,14.2-19.6,33-19.6,33s5.6,7.8,11.8,7.8H740l8.2-38.1l16.9,36.8
			l0.7-0.3L747.4,480.5z"/>
		<path class="st79" d="M777.8,530.7h-13.3c0,0-1.9-2.2,0.5-3.3C767.4,526.2,777.8,530.7,777.8,530.7z"/>
		<path class="st79" d="M833.4,520.7l-6.3,11.8c0,0-2.8,0.6-2.7-2C824.5,527.8,833.4,520.7,833.4,520.7z"/>
		<path class="st47" d="M702.8,413.5c-2.3,10-2.8,20.4-1.4,30.6c0,0,10.6,6.4,17.1,6.5c0,0,6-25,3.7-34.9
			C719.8,405.9,703.6,410.4,702.8,413.5z"/>
		<path class="st47" d="M701.5,427.8c-1.4-3.7-6.6-2.9-5.7-0.1c0.9,2.8,4.8,7.9,5.8,7S701.8,428.8,701.5,427.8z"/>
		<path class="st47" d="M700.6,430.7c-0.5-1.4-2.4-1.1-2,0c0.3,1.1,1.7,2.9,2.1,2.6S700.8,431,700.6,430.7z"/>
		<path class="st64" d="M744.2,463.1c0.3,2.3-0.4,3.8-1.1,4c-1.2,0-2.4-0.4-3.3-1.3C739.4,465.1,743.9,461.1,744.2,463.1z"/>
		<path class="st47" d="M743.4,461.8c-0.2,4.4-0.7,4.8-1.6,5.1c-0.8,0.4-3.4-0.2-3.7-0.8c-0.3-0.7,0.2-2.4,0.9-2.3
			c0.5,0.1,1,0.2,1.5,0.2L743.4,461.8z"/>
		<path class="st47" d="M741.2,460.5c-1.2-1.8-10.1-1.7-14.8,1.8l4.9,4.8c1.6-2.6,5.7-2.4,8.3-2.1
			C742.2,465.2,742.4,462.3,741.2,460.5z"/>
		<path class="st47" d="M741.6,462.6c-0.2,4.4-0.7,4.8-1.6,5.2c-0.8,0.4-3.4-0.2-3.7-0.8c-0.3-0.7,0.2-2.4,0.9-2.3
			c0.5,0.1,1,0.2,1.5,0.2L741.6,462.6z"/>
		<path class="st47" d="M739.4,459.6c2.3,0.3,4.4,1.3,6.1,2.8c1,1.3,1.8,2.9,2.3,4.5c0,0.6-1.7,1.4-2,0.6c-0.3-0.8-1.5-3.3-1.8-3.5
			c-0.3-0.1-3.4-1.4-3.5-1.4C740,461.7,739.7,460.7,739.4,459.6z"/>
		<path class="st64" d="M765.3,482.2c6.7-2.9,10.3-1.6,11.9-6.2l-10.1,0.4L765.3,482.2z"/>
		<path class="st64" d="M772.9,478.3c1.7-0.8,2.7-2.4,2.8-4.3c0-1.2,1.8-1.5,1.9-0.3c0,1.1-0.3,2.3-0.9,3.2
			C776.2,477.7,772.9,478.3,772.9,478.3z"/>
		<path class="st64" d="M770.3,478.5c1.7-0.8,2.7-2.4,2.8-4.3c0-1.2,1.8-1.5,1.9-0.3c0,1.1-0.3,2.3-0.9,3.2
			C773.6,477.9,770.3,478.5,770.3,478.5z"/>
		<path class="st64" d="M767.7,478.7c1.7-0.8,2.7-2.4,2.8-4.3c0-1.2,1.8-1.5,1.9-0.3c0,1.1-0.3,2.3-0.9,3.2
			C770.9,478.1,767.7,478.7,767.7,478.7z"/>
		<line class="st80" x1="273.8" y1="382.3" x2="299.6" y2="626.2"/>
		<line class="st80" x1="333.4" y1="382.3" x2="359.2" y2="626.2"/>
		<line class="st80" x1="274.9" y1="392.7" x2="334.5" y2="392.7"/>
		<line class="st80" x1="277" y1="412.6" x2="336.6" y2="412.6"/>
		<line class="st80" x1="279.1" y1="432.4" x2="338.7" y2="432.4"/>
		<line class="st80" x1="281.2" y1="452.2" x2="340.8" y2="452.2"/>
		<line class="st80" x1="283.3" y1="472" x2="342.9" y2="472"/>
		<line class="st80" x1="285.4" y1="491.8" x2="345" y2="491.8"/>
		<line class="st80" x1="287.5" y1="511.7" x2="347.1" y2="511.7"/>
		<line class="st80" x1="289.6" y1="531.5" x2="349.2" y2="531.5"/>
		<line class="st80" x1="291.7" y1="551.3" x2="351.3" y2="551.3"/>
		<line class="st80" x1="293.8" y1="571.1" x2="353.4" y2="571.1"/>
		<line class="st80" x1="295.9" y1="591" x2="355.5" y2="591"/>
		<line class="st80" x1="298" y1="610.8" x2="357.6" y2="610.8"/>
		<path class="st55" d="M343.8,346.9l-0.4,17.5c0,0-8.7,5.6-14.6-2.8l2-8.5L343.8,346.9z"/>
		<path class="st47" d="M332.9,336.1c0,0-8.8,10.8-5.9,15.6c1.5,2.5,4.2,4,7.2,2.6c2.2-1,11.5-8.1,10.8-9.9
			C342.6,337.2,332.9,336.1,332.9,336.1z"/>
		<path class="st47" d="M329,342.4c0,0-2.7,1.7-3.1,3.2c-0.1,0.7,2.1,1.3,2.1,1.3"/>
		<path class="st63" d="M348.5,339.2c-0.5-0.4-1-0.8-1.4-1.3c-1-1.3-0.8-3.2-1.9-4.3s-2.8-1-4.2-1.6c-0.8-0.4-1.6-1-2.4-1.4
			c-1.4-0.7-2.9-1.2-4.5-1.5c-1.5-0.2-3,0.3-4.1,1.4c-0.9,0.8-1.2,2.2-0.6,3.3c0.6,0.8,1.8,1.2,2.1,2.1s-0.1,1.7,0.1,2.5
			c0.4,1.5,2.6,1.8,3.5,3.2s0.2,3.1,0.8,4.6c0.4,1,1.4,1.8,1.7,2.9c0.2,0.7,0.1,1.5,0.3,2.1c0.6,2.2,3.5,3.6,5.7,3.6
			c1.1,0,1.3-0.5,1.9-1.3c1.3-1.9,2.5-4,3.3-6.1c0.8-2.1,1.7-5.7-0.1-7.6C348.7,339.4,348.6,339.3,348.5,339.2z"/>
		<path class="st47" d="M335.6,346.7c0.9-2.2,2.8-0.8,3.3,0.2c0.6,1.3-1.2,3.5-1.9,3.8c-1.5,0.6-2.6,0.4-2.6-0.7"/>
		<path class="st47" d="M360.1,521.9l7.2,29.7l1.8,9l-32.9,5.8c-0.8,0.1-1.6-0.5-1.7-1.3c0,0,0,0,0,0l0,0c-0.1-0.6,0.1-1.3,0.7-1.6
			l12.9-9.6l-8.7-30.6"/>
		<path class="st63" d="M333.3,566.5c0.1-1.2,0.5-2.6,1.1-3l13.8-9.7c8.9,2.1,19.2-2.6,19.2-2.6l4.1,11.8c0.1,0.4-0.2,0.8-0.5,0.8
			c0,0,0,0,0,0l-36.6,6.5C333.5,570.5,333.3,566.5,333.3,566.5z"/>
		<path class="st52" d="M328.9,434.9c0,0,1.8,34.4,4,60.2c1.7,18.4,5.1,36.5,10.2,54.2l25-3.7c0,0-8.2-38.6-9.1-50.6
			c-1.3-17-0.3-41.3-0.3-41.3c2.9-7.1,3.1-15.1,0.4-22.3"/>
		<path class="st47" d="M332.2,527.5L334,558l0.2,9.2l-33.4-0.2c-0.8,0-1.5-0.8-1.5-1.6l0,0c0-0.6,0.4-1.2,1-1.5l14.4-7.1l-3.1-31.7
			"/>
		<path class="st63" d="M297.9,566.6c0.3-1.2,1-2.4,1.6-2.7l15.3-7.1c8.4,3.7,19.3,0.9,19.3,0.9L336,570c0,0.4-0.3,0.7-0.7,0.7
			l-37.2-0.2C297.4,570.6,297.9,566.7,297.9,566.6z"/>
		<path class="st57" d="M310.8,434.9c0,0-2.5,37.3-1.5,63.1c1,25.9,2.4,52.3,2.4,52.3h25.5c0,0-0.7-42-0.1-58s3.2-37.3,3.2-37.3
			s5.6-6.8,2.3-22.2"/>
		<path class="st81" d="M371,403.8c-2.4-18.9-7.5-28.2-12.5-34.2c-3.8-4.6-9-7.7-14.8-8.9l-1.1,23.7c0,0,9.8,19.9,9.7,22.6
			c-0.1,6.3-8,27.9-8,27.9l16.8-1.5C361.1,433.4,372.3,414.2,371,403.8z"/>
		<path class="st47" d="M272,350.7c-4.2-3.2-15-14.5-16-14s2.7,4.5,1.9,4.7s-7-5.6-7.9-4.9c-1.2,1,5.4,6.6,5.4,6.6s-1.7-0.7-2.5,0.5
			c-0.6,0.8,1,2.4,1,2.4s-1.9-0.7-2.4,0.1s1.2,2.8,1.2,2.8s-1.5-0.8-1.8,0.1c-0.6,1.4,3.9,5.9,12.2,13.7"/>
		<path class="st82" d="M343.7,360.7c0,0,13.2,5,16.4,22.9c1.4,8,1,52.8,1,52.8c-24.5,4.3-50.7-0.9-50.7-0.9s1-34.6,0.8-45.1
			c-0.6-25.2,19.6-29.1,19.6-29.1L343.7,360.7z"/>
		<path class="st82" d="M342.6,360.8c0,0-15.5-0.6-27.2,1c-12.1,1.7-20.8,2.6-25.5,1s-22.2-17.8-22.2-17.8l-12.5,12.4
			c0,0,18.9,24.8,35.7,26.9s35.3-2.3,35.3-2.3"/>
		<line class="st83" x1="311.5" y1="384.4" x2="323.5" y2="382.5"/>
	</g>
</g>
</svg>
